# xmcd
#
# Track frame offsets: 
#        150
#        16471
#        33338
#        49838
#        67947
#        87703
#        105470
#        121550
#        141508
#        156047
#
# Disc length: 2334 seconds
#
# Revision: 0
# Processed by: cddbd v1.5.2PL0 Copyright (c) Steve Scherf et al.
# Submitted via: ExactAudioCopy v1.0b1
#
DISCID=7e091c0a
DTITLE=Diane Durrett - Blame It On My DNA
DYEAR=2008
DGENRE=Soul
TTITLE0=Love Ain't That Smart
TTITLE1=Blame It on My DNA
TTITLE2=Seventeen
TTITLE3=Just Believe
TTITLE4=In Between Times
TTITLE5=Ready
TTITLE6=Hell Gettin' Out
TTITLE7=Shoulda' Known Better
TTITLE8=Better Off Than On
TTITLE9=Cook It Up
EXTD=
EXTT0=
EXTT1=
EXTT2=
EXTT3=
EXTT4=
EXTT5=
EXTT6=
EXTT7=
EXTT8=
EXTT9=
PLAYORDER=
